<?xml version="1.0" encoding="utf-8"?>
<!-- Generator: Adobe Illustrator 16.0.0, SVG Export Plug-In . SVG Version: 6.00 Build 0)  -->
<svg version="1.1" id="圖層_1" xmlns="http://www.w3.org/2000/svg" xmlns:xlink="http://www.w3.org/1999/xlink" x="0px" y="0px"
	 width="15px" height="15px" viewBox="0 0 15 15" enable-background="new 0 0 15 15" xml:space="preserve">
<style type="text/css">
	.st0 {
		display: none;
		}
	.st1 {
		display: inline;
		fill: #272727
		}
	.st2 {
		fill: #0073ab;
	}
</style>
<g class="st0">
	<path class="st1" d="M13.363,10.63c0,1.511-1.225,2.731-2.73,2.731h-7.9C1.225,13.361,0,12.141,0,10.63V2.733
		C0,1.224,1.225,0,2.733,0h7.897c1.509,0,2.729,1.225,2.729,2.732L13.363,10.63L13.363,10.63z M2.733,1.215
		c-0.835,0-1.519,0.684-1.519,1.52v7.896c0,0.836,0.684,1.52,1.519,1.52h7.897c0.834,0,1.519-0.684,1.519-1.52V2.733
		c0-0.835-0.685-1.52-1.519-1.52L2.733,1.215L2.733,1.215z"/>
</g>
<g>
	<path class="st2" d="M15.014,12.2c0,1.554-1.259,2.813-2.812,2.813H2.827c-1.552,0-2.813-1.26-2.813-2.813V2.826
		c0-1.553,1.261-2.812,2.813-2.812h9.375c1.553,0,2.812,1.259,2.812,2.812V12.2z M12.7,5.453c0.243-0.245,0.243-0.634,0-0.879
		l-0.997-0.996c-0.246-0.245-0.635-0.245-0.879,0L6.263,8.139L4.202,6.077c-0.244-0.244-0.633-0.244-0.877,0L2.328,7.074
		c-0.244,0.244-0.244,0.634,0,0.878l3.495,3.497c0.244,0.244,0.635,0.244,0.879,0L12.7,5.453z"/>
</g>
</svg>
