<?xml version="1.0" encoding="utf-8"?>
<!-- Generator: Adobe Illustrator 16.0.0, SVG Export Plug-In . SVG Version: 6.00 Build 0)  -->
<!DOCTYPE svg PUBLIC "-//W3C//DTD SVG 1.1//EN" "http://www.w3.org/Graphics/SVG/1.1/DTD/svg11.dtd">
<svg version="1.1" id="圖層_1" xmlns="http://www.w3.org/2000/svg" xmlns:xlink="http://www.w3.org/1999/xlink" x="0px" y="0px"
	 width="15px" height="15px" viewBox="0 0 15 15" enable-background="new 0 0 15 15" xml:space="preserve">
<style type="text/css">
	.st0{
		fill:#50505A;
		}
	.st1{
		display: none;
		}
	.st2{
		display: inline;
		fil: #262727;
		}
</style>
<g>
	<path class="st0" d="M15,11.932C15,13.629,13.625,15,11.934,15H3.068C1.375,15,0,13.629,0,11.932V3.068C0,1.375,1.375,0,3.068,0
		h8.866c1.691,0,3.065,1.375,3.065,3.068L15,11.932L15,11.932z M3.068,1.364c-0.938,0-1.705,0.768-1.705,1.706v8.864
		c0,0.938,0.767,1.705,1.705,1.705h8.866c0.937,0,1.703-0.768,1.703-1.705V3.068c0-0.937-0.768-1.706-1.703-1.706L3.068,1.364
		L3.068,1.364z"/>
</g>
<g class="st1">
	<path class="st2" d="M13.35,10.85c0,1.381-1.119,2.5-2.5,2.5H2.515c-1.38,0-2.501-1.119-2.501-2.5V2.514
		c0-1.381,1.121-2.5,2.501-2.5h8.334c1.381,0,2.5,1.119,2.5,2.5V10.85z M11.293,4.85c0.217-0.218,0.217-0.564,0-0.781l-0.887-0.886
		c-0.219-0.218-0.564-0.218-0.781,0L5.57,7.238L3.738,5.405c-0.217-0.217-0.563-0.217-0.78,0L2.072,6.291
		c-0.217,0.217-0.217,0.564,0,0.781l3.107,3.11c0.217,0.217,0.564,0.217,0.781,0L11.293,4.85z"/>
</g>
</svg>
