<?xml version="1.0" encoding="utf-8"?>
<!-- Generator: Adobe Illustrator 16.0.0, SVG Export Plug-In . SVG Version: 6.00 Build 0)  -->
<!DOCTYPE svg PUBLIC "-//W3C//DTD SVG 1.1//EN" "http://www.w3.org/Graphics/SVG/1.1/DTD/svg11.dtd">
<svg version="1.1" id="圖層_1" xmlns="http://www.w3.org/2000/svg" xmlns:xlink="http://www.w3.org/1999/xlink" x="0px" y="0px"
	 width="15px" height="9.625px" viewBox="0 0 15 9.625" enable-background="new 0 0 15 9.625" xml:space="preserve">
<g>
	<path fill="#FFFFFF" d="M14.833,5.398c-1.541,2.537-4.36,4.244-7.333,4.244c-2.971,0-5.792-1.715-7.333-4.244
		C0.067,5.223,0,5.031,0,4.821C0,4.612,0.067,4.42,0.167,4.244C1.708,1.716,4.529,0,7.5,0c2.973,0,5.792,1.716,7.333,4.244
		C14.934,4.42,15,4.612,15,4.821C15,5.031,14.934,5.223,14.833,5.398z M10.74,1.867c0.334,0.569,0.51,1.222,0.51,1.883
		c0,2.066-1.684,3.75-3.75,3.75c-2.067,0-3.75-1.684-3.75-3.75c0-0.661,0.176-1.314,0.511-1.883
		c-1.306,0.669-2.394,1.724-3.19,2.954C2.503,7.031,4.813,8.57,7.5,8.57c2.688,0,4.997-1.539,6.43-3.75
		C13.134,3.591,12.045,2.536,10.74,1.867z M7.5,1.206c-1.398,0-2.544,1.146-2.544,2.544c0,0.217,0.184,0.401,0.401,0.401
		c0.218,0,0.402-0.184,0.402-0.401c0-0.955,0.787-1.741,1.741-1.741c0.217,0,0.401-0.184,0.401-0.402
		C7.901,1.39,7.717,1.206,7.5,1.206z"/>
</g>
</svg>
