<?xml version="1.0" encoding="utf-8"?>
<!-- Generator: Adobe Illustrator 16.0.0, SVG Export Plug-In . SVG Version: 6.00 Build 0)  -->
<!DOCTYPE svg PUBLIC "-//W3C//DTD SVG 1.1//EN" "http://www.w3.org/Graphics/SVG/1.1/DTD/svg11.dtd">
<svg version="1.1" id="圖層_1" xmlns="http://www.w3.org/2000/svg" xmlns:xlink="http://www.w3.org/1999/xlink" x="0px" y="0px"
	 width="14.578px" height="14.578px" viewBox="0 0 14.578 14.578" enable-background="new 0 0 14.578 14.578" xml:space="preserve">
<g>
	<path fill="#569E88" d="M14.578,7.289c0,4.023-3.266,7.289-7.29,7.289C3.264,14.578,0,11.313,0,7.289C0,3.265,3.264,0,7.289,0
		C11.312,0,14.578,3.265,14.578,7.289z M9.671,5.125c0.048-0.009,0.095-0.18,0.124-0.218c0.057-0.066,0.133-0.104,0.208-0.142
		c0.161-0.066,0.323-0.085,0.493-0.114c0.162-0.038,0.361-0.038,0.484,0.104c-0.028-0.028,0.199-0.228,0.229-0.237
		c0.085-0.047,0.227-0.028,0.284-0.114c0.019-0.028,0.019-0.209,0.019-0.209c-0.16,0.019-0.218-0.133-0.228-0.266
		c0,0.01-0.019,0.038-0.058,0.076c0.01-0.143-0.17-0.038-0.236-0.057c-0.219-0.057-0.189-0.209-0.256-0.37
		c-0.039-0.085-0.144-0.114-0.182-0.199c-0.037-0.057-0.058-0.181-0.143-0.19c-0.059-0.009-0.161,0.199-0.182,0.19
		c-0.084-0.047-0.123,0.019-0.188,0.057C9.984,3.474,9.937,3.455,9.879,3.483c0.172-0.057-0.074-0.152-0.16-0.133
		c0.133-0.038,0.066-0.18-0.01-0.247c0.02,0,0.027,0,0.047,0c-0.02-0.085-0.283-0.161-0.369-0.218
		C9.301,2.828,8.846,2.733,8.75,2.791C8.637,2.857,8.779,3.046,8.779,3.142c0.009,0.114-0.115,0.142-0.115,0.237
		c0,0.161,0.305,0.133,0.229,0.351C8.846,3.863,8.664,3.891,8.589,3.996C8.514,4.091,8.598,4.261,8.674,4.328
		c0.076,0.057-0.133,0.151-0.16,0.17C8.352,4.575,8.229,4.337,8.189,4.195C8.162,4.091,8.152,3.967,8.039,3.91
		C7.98,3.891,7.801,3.863,7.763,3.92C7.706,3.777,7.507,3.721,7.374,3.673c-0.19-0.066-0.351-0.066-0.55-0.038
		c0.066-0.01-0.019-0.304-0.181-0.256C6.69,3.284,6.672,3.18,6.69,3.084c0.019-0.076,0.057-0.152,0.114-0.218
		c0.02-0.038,0.228-0.256,0.162-0.265C7.127,2.62,7.308,2.629,7.44,2.496c0.085-0.085,0.124-0.228,0.209-0.323
		C7.772,2.031,7.924,2.211,8.057,2.22c0.189,0.01,0.182-0.199,0.075-0.294c0.124,0.009,0.021-0.218-0.047-0.247
		C8,1.651,7.678,1.737,7.85,1.803C7.811,1.784,7.583,2.259,7.45,2.021C7.412,1.974,7.393,1.775,7.308,1.765
		c-0.076,0-0.124,0.085-0.152,0.143C7.203,1.784,6.89,1.699,6.824,1.689C6.966,1.595,6.852,1.49,6.748,1.433
		c-0.076-0.047-0.313-0.085-0.38-0.009c-0.18,0.218,0.19,0.246,0.285,0.304C6.681,1.746,6.795,1.813,6.729,1.86
		C6.672,1.889,6.501,1.936,6.482,1.974C6.425,2.06,6.548,2.154,6.463,2.24C6.377,2.154,6.377,2.012,6.311,1.917
		c0.085,0.104-0.342,0.048-0.332,0.048c-0.143,0-0.37,0.095-0.475-0.048C5.485,1.879,5.485,1.661,5.542,1.708
		C5.457,1.642,5.4,1.576,5.343,1.538C5.03,1.642,4.735,1.775,4.451,1.927c0.038,0.009,0.066,0.009,0.114-0.01
		c0.076-0.028,0.143-0.076,0.218-0.114c0.095-0.038,0.294-0.152,0.399-0.066C5.191,1.718,5.22,1.699,5.229,1.689
		c0.066,0.076,0.133,0.152,0.19,0.237C5.343,1.889,5.22,1.908,5.134,1.917c-0.066,0.019-0.18,0.038-0.209,0.114
		c0.028,0.047,0.066,0.123,0.047,0.171C4.85,2.117,4.754,1.974,4.583,1.955c-0.076,0-0.152,0-0.208,0.01
		c-0.911,0.503-1.68,1.233-2.23,2.107C2.183,4.109,2.22,4.138,2.258,4.147c0.095,0.028,0,0.304,0.18,0.162
		c0.057,0.047,0.067,0.114,0.029,0.18c0.009-0.01,0.389,0.237,0.417,0.256C2.95,4.802,3.055,4.868,3.083,4.944
		C3.102,5.01,3.045,5.086,2.988,5.115c-0.01-0.019-0.152-0.162-0.171-0.124c-0.028,0.047,0,0.304,0.104,0.294
		c-0.15,0.011-0.084,0.599-0.122,0.713c0,0.01,0.019,0.01,0.019,0.01C2.79,6.122,2.885,6.568,3.075,6.521
		C2.951,6.549,3.293,6.985,3.34,7.014C3.464,7.099,3.606,7.156,3.691,7.28c0.095,0.133,0.095,0.332,0.228,0.437
		c-0.038,0.113,0.2,0.246,0.19,0.407c-0.019,0.01-0.028,0.01-0.047,0.019C4.109,8.275,4.29,8.275,4.356,8.398
		c0.038,0.076,0,0.256,0.123,0.219C4.498,8.409,4.356,8.2,4.251,8.029C4.194,7.936,4.138,7.85,4.09,7.754
		c-0.048-0.085-0.057-0.19-0.095-0.285c0.038,0.01,0.247,0.085,0.228,0.114c-0.076,0.19,0.304,0.522,0.408,0.646
		C4.66,8.257,4.878,8.542,4.764,8.542c0.123,0,0.294,0.188,0.351,0.285C5.2,8.969,5.181,9.15,5.239,9.301
		c0.057,0.19,0.322,0.275,0.474,0.36C5.846,9.729,5.96,9.822,6.093,9.87C6.292,9.945,6.339,9.88,6.51,9.852
		c0.247-0.037,0.275,0.237,0.475,0.342c0.124,0.066,0.389,0.162,0.522,0.104c-0.057,0.021,0.199,0.408,0.218,0.437
		c0.085,0.115,0.248,0.172,0.341,0.285c0.029-0.02,0.057-0.047,0.066-0.086c-0.037,0.104,0.143,0.305,0.238,0.284
		c0.104-0.019,0.133-0.227,0.133-0.303c-0.189,0.095-0.361,0.019-0.465-0.172C8.02,10.695,7.868,10.432,8,10.432
		c0.182,0,0.057-0.144,0.039-0.275C8.02,10.021,7.887,9.938,7.82,9.822c-0.057,0.113-0.248,0.087-0.304-0.01
		c0,0.029-0.028,0.076-0.028,0.115c-0.047,0-0.095,0.008-0.142-0.011c0.019-0.114,0.028-0.257,0.057-0.38
		c0.047-0.17,0.361-0.503-0.047-0.482C7.213,9.064,7.157,9.12,7.109,9.243C7.061,9.357,7.08,9.462,6.947,9.52
		c-0.085,0.039-0.37,0.02-0.456-0.027c-0.18-0.104-0.304-0.438-0.304-0.626c-0.009-0.257,0.124-0.484,0-0.722
		c0.057-0.047,0.114-0.143,0.181-0.189C6.425,7.916,6.491,7.982,6.52,7.868C6.491,7.85,6.454,7.811,6.444,7.811
		c0.143,0.066,0.408-0.095,0.532,0c0.076,0.058,0.161,0.076,0.208-0.019c0.01-0.028-0.066-0.142-0.028-0.218
		c0.028,0.162,0.133,0.19,0.275,0.085C7.488,7.716,7.64,7.697,7.744,7.754C7.85,7.82,7.868,7.925,7.991,7.783
		C8.066,7.896,8.076,7.896,8.105,8.01c0.026,0.104,0.084,0.37,0.18,0.418c0.199,0.123,0.152-0.209,0.133-0.322
		c-0.01-0.01-0.01-0.323-0.02-0.323C8.096,7.716,8.209,7.479,8.38,7.317c0.028-0.019,0.247-0.095,0.343-0.171
		C8.807,7.07,8.912,6.938,8.865,6.814c0.048,0,0.085-0.038,0.104-0.085C8.939,6.72,8.826,6.625,8.807,6.634
		c0.066-0.038,0.059-0.095,0.021-0.152C8.922,6.425,8.874,6.32,8.971,6.283C9.072,6.425,9.281,6.264,9.178,6.15
		C9.271,6.017,9.49,6.083,9.547,5.96c0.143,0.038,0.039-0.143,0.114-0.247C9.727,5.628,9.842,5.628,9.928,5.58
		c0,0.01,0.236-0.133,0.16-0.142c0.162,0.019,0.484-0.152,0.238-0.294c0.037-0.085-0.086-0.124-0.172-0.142
		c0.066-0.019,0.152,0.019,0.209-0.019c0.123-0.085,0.039-0.124-0.066-0.152c-0.133-0.038-0.303,0.047-0.408,0.114
		C9.812,5.002,9.766,5.106,9.671,5.125z M11.674,11.475c-0.057-0.058-0.162-0.037-0.238-0.076c-0.074-0.027-0.133-0.057-0.227-0.074
		c0.02-0.19-0.189-0.258-0.322-0.352c-0.125-0.097-0.199-0.199-0.381-0.162c-0.02,0.01-0.209,0.076-0.171,0.114
		c-0.123-0.104-0.181-0.161-0.341-0.209c-0.152-0.048-0.258-0.237-0.408-0.065c-0.076,0.074-0.039,0.188-0.076,0.266
		c-0.123-0.105,0.113-0.229,0.02-0.342c-0.114-0.133-0.313,0.085-0.408,0.143c-0.057,0.047-0.123,0.066-0.161,0.123
		c-0.047,0.066-0.065,0.152-0.104,0.219C8.826,10.98,8.664,11,8.654,10.941c0.039,0.229,0.039,0.467,0.086,0.693
		c0.029,0.133,0,0.352-0.113,0.455c-0.113,0.105-0.256,0.219-0.275,0.381c-0.02,0.113,0.01,0.219,0.113,0.246
		c0.01,0.143-0.15,0.247-0.143,0.398c0,0.01,0.01,0.104,0.02,0.152C9.643,13.04,10.801,12.396,11.674,11.475z"/>
</g>
</svg>
