<?xml version="1.0" encoding="utf-8"?>
<!-- Generator: Adobe Illustrator 16.0.0, SVG Export Plug-In . SVG Version: 6.00 Build 0)  -->
<!DOCTYPE svg PUBLIC "-//W3C//DTD SVG 1.1//EN" "http://www.w3.org/Graphics/SVG/1.1/DTD/svg11.dtd">
<svg version="1.1" id="圖層_1" xmlns="http://www.w3.org/2000/svg" xmlns:xlink="http://www.w3.org/1999/xlink" x="0px" y="0px"
	 width="13.711px" height="13.711px" viewBox="0 0 13.711 13.711" enable-background="new 0 0 13.711 13.711" xml:space="preserve">
<g>
	<path fill="#fff" d="M6.856,13.711C3.071,13.711,0,10.641,0,6.855C0,3.071,3.071,0,6.856,0c3.785,0,6.855,3.071,6.855,6.855
		C13.711,10.641,10.641,13.711,6.856,13.711z M11.301,6.445L8.07,3.213L7.257,2.401c-0.107-0.107-0.25-0.16-0.401-0.16
		c-0.152,0-0.295,0.053-0.402,0.161L5.641,3.213L2.41,6.445c-0.106,0.107-0.16,0.25-0.16,0.402c0,0.152,0.054,0.294,0.16,0.401
		l0.812,0.813c0.107,0.106,0.25,0.16,0.402,0.16c0.151,0,0.294-0.054,0.401-0.16l1.688-1.688v4.482c0,0.313,0.259,0.569,0.57,0.569
		h1.143c0.313,0,0.572-0.258,0.572-0.569V6.374l1.688,1.687c0.107,0.106,0.25,0.17,0.4,0.17c0.152,0,0.295-0.063,0.402-0.17
		l0.813-0.813c0.107-0.107,0.16-0.25,0.16-0.401C11.461,6.696,11.408,6.552,11.301,6.445z"/>
</g>
</svg>
