<?xml version="1.0" encoding="utf-8"?>
<!-- Generator: Adobe Illustrator 16.0.0, SVG Export Plug-In . SVG Version: 6.00 Build 0)  -->
<!DOCTYPE svg PUBLIC "-//W3C//DTD SVG 1.1//EN" "http://www.w3.org/Graphics/SVG/1.1/DTD/svg11.dtd">
<svg version="1.1" id="圖層_1" xmlns="http://www.w3.org/2000/svg" xmlns:xlink="http://www.w3.org/1999/xlink" x="0px" y="0px"
	 width="15px" height="17.5px" viewBox="0 0 15 17.5" enable-background="new 0 0 15 17.5" xml:space="preserve">
<g>
	<path fill="#569E88" d="M15,5.313v11.25c0,0.518-0.421,0.938-0.938,0.938H0.937c-0.518,0-0.938-0.42-0.938-0.938V0.938
		C-0.001,0.42,0.419,0,0.937,0h8.75c0.518,0,1.24,0.303,1.604,0.664l3.046,3.047C14.697,4.073,15,4.796,15,5.313z M13.749,6.25
		H9.688c-0.519,0-0.938-0.42-0.938-0.938V1.25h-7.5v15h12.5L13.749,6.25L13.749,6.25z M2.499,8.126c0-1.035,0.84-1.875,1.875-1.875
		S6.25,7.091,6.25,8.126S5.41,10,4.375,10S2.499,9.161,2.499,8.126z M12.499,15h-10v-1.875l1.875-1.875l1.25,1.25l3.75-3.75
		l3.125,3.125V15z M9.999,5h3.672c-0.058-0.166-0.146-0.332-0.215-0.4l-3.058-3.057c-0.067-0.068-0.232-0.156-0.399-0.215V5z"/>
</g>
</svg>
