<?xml version="1.0" encoding="utf-8"?>
<!-- Generator: Adobe Illustrator 16.0.0, SVG Export Plug-In . SVG Version: 6.00 Build 0)  -->
<!DOCTYPE svg PUBLIC "-//W3C//DTD SVG 1.1//EN" "http://www.w3.org/Graphics/SVG/1.1/DTD/svg11.dtd">
<svg version="1.1" id="圖層_1" xmlns="http://www.w3.org/2000/svg" xmlns:xlink="http://www.w3.org/1999/xlink" x="0px" y="0px"
	 width="20px" height="14.743px" viewBox="0 0 20 14.743" enable-background="new 0 0 20 14.743" xml:space="preserve">
<g>
	<path fill="#63A665" d="M19.517,9.661l-3.09,3.803c-0.597,0.733-1.738,1.279-2.683,1.279H2.347C1.058,14.743,0,13.684,0,12.396
		V2.338C0,1.05,1.058-0.008,2.347-0.008h3.353c1.288,0,2.346,1.058,2.346,2.347v0.335h5.699c1.288,0,2.348,1.058,2.348,2.347v1.676
		h2.013c0.71,0,1.423,0.325,1.737,0.995C19.947,7.912,20,8.153,20,8.404C20,8.865,19.801,9.305,19.517,9.661z M14.751,6.697V5.021
		c0-0.556-0.452-1.006-1.007-1.006H7.71c-0.555,0-1.006-0.451-1.006-1.006v-0.67c0-0.555-0.45-1.006-1.005-1.006H2.347
		c-0.555,0-1.006,0.451-1.006,1.006v8.936l2.682-3.3C4.631,7.23,5.752,6.697,6.704,6.697H14.751z M18.104,8.038h-11.4
		c-0.555,0-1.288,0.346-1.645,0.775l-3.08,3.803c-0.094,0.126-0.188,0.261-0.188,0.419c0,0.294,0.325,0.367,0.555,0.367h11.397
		c0.555,0,1.288-0.347,1.646-0.786l3.078-3.803c0.097-0.115,0.19-0.251,0.19-0.409C18.659,8.111,18.334,8.038,18.104,8.038z"/>
</g>
</svg>
