<?xml version="1.0" encoding="utf-8"?>
<!-- Generator: Adobe Illustrator 16.0.0, SVG Export Plug-In . SVG Version: 6.00 Build 0)  -->
<!DOCTYPE svg PUBLIC "-//W3C//DTD SVG 1.1//EN" "http://www.w3.org/Graphics/SVG/1.1/DTD/svg11.dtd">
<svg version="1.1" id="圖層_1" xmlns="http://www.w3.org/2000/svg" xmlns:xlink="http://www.w3.org/1999/xlink" x="0px" y="0px"
	 width="13.711px" height="13.711px" viewBox="0 0 13.711 13.711" enable-background="new 0 0 13.711 13.711" xml:space="preserve">
<g>
	<path fill="#fff" d="M6.856,13.711C3.071,13.711,0,10.641,0,6.855C0,3.071,3.071,0,6.856,0c3.785,0,6.855,3.071,6.855,6.855
		C13.711,10.641,10.641,13.711,6.856,13.711z M11.301,6.463L10.488,5.65c-0.107-0.107-0.25-0.161-0.402-0.161
		c-0.15,0-0.293,0.054-0.4,0.161L7.999,7.337V2.856c0-0.313-0.261-0.571-0.571-0.571H6.284c-0.312,0-0.57,0.259-0.57,0.571v4.481
		L4.026,5.65c-0.107-0.107-0.25-0.169-0.401-0.169c-0.152,0-0.295,0.063-0.402,0.169L2.41,6.463C2.303,6.57,2.25,6.712,2.25,6.864
		c0,0.152,0.054,0.295,0.16,0.402l3.231,3.232l0.813,0.811c0.107,0.107,0.25,0.162,0.402,0.162c0.151,0,0.294-0.055,0.401-0.162
		l0.813-0.811L11.3,7.266c0.107-0.107,0.16-0.25,0.16-0.402C11.46,6.712,11.408,6.57,11.301,6.463z"/>
</g>
</svg>
