<?xml version="1.0" encoding="utf-8"?>
<!-- Generator: Adobe Illustrator 25.0.0, SVG Export Plug-In . SVG Version: 6.00 Build 0)  -->
<svg version="1.1" id="圖層_1" xmlns="http://www.w3.org/2000/svg" xmlns:xlink="http://www.w3.org/1999/xlink" x="0px" y="0px"
	 viewBox="0 0 15 15" style="enable-background:new 0 0 15 15;" xml:space="preserve">
<style type="text/css">
	.st0{
		display: none;
		}
	.st1{
		display: inline;
		fill:#50505A;
		}
	.st2{
		fill: #0073ab;
		}
	.st3{
		display: none;
		fill: none;
		stroke: #50505A;
		stroke-width: 1.25;
		stroke-miterlimit: 10;
		}
</style>
<g class="st0">
	<path class="st1" d="M15,11.9c0,1.7-1.4,3.1-3.1,3.1H3.1C1.4,15,0,13.6,0,11.9V3.1C0,1.4,1.4,0,3.1,0h8.9C13.6,0,15,1.4,15,3.1
		L15,11.9L15,11.9z M3.1,1.4c-0.9,0-1.7,0.8-1.7,1.7v8.9c0,0.9,0.8,1.7,1.7,1.7h8.9c0.9,0,1.7-0.8,1.7-1.7V3.1
		c0-0.9-0.8-1.7-1.7-1.7L3.1,1.4L3.1,1.4z"/>
</g>
<g>
	<path class="st2" d="M12.1,5.7c0.2-0.2,0.2-0.6,0-0.8L11.2,4c-0.2-0.2-0.6-0.2-0.8,0L6.4,8.1L4.6,6.2C4.3,6,4,6,3.8,6.2L2.9,7.1
		c-0.2,0.2-0.2,0.6,0,0.8L6,11c0.2,0.2,0.6,0.2,0.8,0L12.1,5.7z M15,7.5c0,4.1-3.3,7.5-7.5,7.5s-7.5-3.3-7.5-7.5S3.4,0,7.5,0
		S15,3.3,15,7.5z"/>
</g>
<circle class="st3" cx="7.5" cy="7.5" r="6.8"/>
</svg>
