<?xml version="1.0" encoding="utf-8"?>
<!-- Generator: Adobe Illustrator 16.0.0, SVG Export Plug-In . SVG Version: 6.00 Build 0)  -->
<!DOCTYPE svg PUBLIC "-//W3C//DTD SVG 1.1//EN" "http://www.w3.org/Graphics/SVG/1.1/DTD/svg11.dtd">
<svg version="1.1" id="圖層_1" xmlns="http://www.w3.org/2000/svg" xmlns:xlink="http://www.w3.org/1999/xlink" x="0px" y="0px"
	 width="25.133px" height="6.492px" viewBox="0 0 25.133 6.492" enable-background="new 0 0 25.133 6.492" xml:space="preserve">
<g>
	<path fill="#AFAFAF" d="M11.021,1.182L5.823,6.38C5.756,6.447,5.655,6.492,5.566,6.492S5.377,6.447,5.31,6.38L0.112,1.182
		C0.045,1.115,0,1.015,0,0.926C0,0.837,0.045,0.737,0.112,0.67L0.67,0.111C0.736,0.044,0.826,0,0.927,0
		c0.089,0,0.189,0.044,0.256,0.111l4.384,4.384L9.95,0.111C10.017,0.044,10.117,0,10.206,0c0.09,0,0.19,0.044,0.257,0.111
		l0.558,0.558c0.067,0.067,0.112,0.167,0.112,0.256C11.133,1.014,11.088,1.115,11.021,1.182z"/>
</g>
</svg>
